<svg width="30" height="30" viewBox="0 0 30 30" fill="none" xmlns="http://www.w3.org/2000/svg">
<g clip-path="url(#clip0_841_951)">
<path fill-rule="evenodd" clip-rule="evenodd" d="M12.1579 6.65112C9.11669 6.65112 6.65131 9.1165 6.65131 12.1577V17.8419C6.65131 20.8831 9.11669 23.3485 12.1579 23.3485H17.8421C20.8833 23.3485 23.3487 20.8831 23.3487 17.8419V12.1577C23.3487 9.1165 20.8833 6.65112 17.8421 6.65112H12.1579ZM8.19078 12.1577C8.19078 9.96673 9.96691 8.1906 12.1579 8.1906H17.8421C20.0331 8.1906 21.8092 9.96673 21.8092 12.1577V17.8419C21.8092 20.0329 20.0331 21.809 17.8421 21.809H12.1579C9.96691 21.809 8.19078 20.0329 8.19078 17.8419V12.1577ZM16.9316 20.2506C17.9699 20.2506 18.896 19.7703 19.5 19.0198C19.2745 18.6353 18.921 18.3275 18.4863 18.1577C17.0319 17.5894 16.2043 17.1512 16.2043 16.3945C16.6772 15.9592 17.0047 15.0319 17.1868 13.6127C17.46 11.484 16.3805 10.9336 15.0402 10.9336L15.0359 11.0502L15.0317 10.9336C13.6914 10.9336 12.6119 11.484 12.8851 13.6127C13.0672 15.0319 13.3708 15.9592 13.7958 16.3945C13.7958 17.1512 12.9682 17.5894 11.5137 18.1577C11.079 18.3275 10.7255 18.6353 10.5 19.0198C11.1039 19.7703 12.0301 20.2506 13.0684 20.2506H16.9316Z" fill="black"/>
</g>
<defs>
<clipPath id="clip0_841_951">
<rect width="18" height="18" fill="white" transform="translate(6 5.99976)"/>
</clipPath>
</defs>
</svg>
