<svg width="30" height="30" viewBox="0 0 30 30" fill="none" xmlns="http://www.w3.org/2000/svg">
<g clip-path="url(#clip0_841_960)">
<path fill-rule="evenodd" clip-rule="evenodd" d="M15 23.1001C19.4735 23.1001 23.1 19.4737 23.1 15.0001C23.1 10.5266 19.4735 6.90015 15 6.90015C10.5265 6.90015 6.90001 10.5266 6.90001 15.0001C6.90001 19.4737 10.5265 23.1001 15 23.1001ZM15.0426 10.4536C16.4661 10.4536 17.6125 11.0407 17.3224 13.3116C17.129 14.8255 16.7812 15.8147 16.279 16.2791C16.279 17.3004 17.4698 18.2624 19.8514 19.1651C18.6793 20.5305 16.9406 21.3949 15 21.3949C13.0594 21.3949 11.3207 20.5305 10.148 19.1657C12.53 18.2626 13.7211 17.3005 13.7211 16.2791C13.2697 15.8147 12.9473 14.8255 12.7539 13.3116C12.4638 11.0407 13.6102 10.4536 15.0337 10.4536L15.0375 10.5721L15.0426 10.4536Z" fill="black"/>
</g>
<defs>
<clipPath id="clip0_841_960">
<rect width="16.2" height="16.2" fill="white" transform="translate(6.9 6.90015)"/>
</clipPath>
</defs>
</svg>
