<svg width="30" height="30" viewBox="0 0 30 30" fill="none" xmlns="http://www.w3.org/2000/svg">
<g clip-path="url(#clip0_841_956)">
<path fill-rule="evenodd" clip-rule="evenodd" d="M15 6.90015C19.4735 6.90015 23.1 10.5266 23.1 15.0001C23.1 19.4737 19.4735 23.1001 15 23.1001C10.5265 23.1001 6.89999 19.4737 6.89999 15.0001C6.89999 10.5266 10.5265 6.90015 15 6.90015ZM15 8.60541C11.4683 8.60541 8.60526 11.4684 8.60526 15.0001C8.60526 16.5909 9.18609 18.046 10.1472 19.1649C12.5299 18.2626 13.721 17.3005 13.721 16.2791C13.2697 15.8147 12.9473 14.8255 12.7539 13.3116C12.4637 11.0407 13.6102 10.4536 15.0336 10.4536L15.0375 10.5721L15.0426 10.4536C16.4661 10.4536 17.6125 11.0407 17.3224 13.3116C17.129 14.8255 16.7812 15.8147 16.2789 16.2791C16.2789 17.3005 17.4701 18.2626 19.8523 19.1654C20.8139 18.046 21.3947 16.5909 21.3947 15.0001C21.3947 11.4684 18.5317 8.60541 15 8.60541Z" fill="black"/>
</g>
<defs>
<clipPath id="clip0_841_956">
<rect width="16.2" height="16.2" fill="white" transform="translate(6.89999 6.90015)"/>
</clipPath>
</defs>
</svg>
